<?xml version="1.0" encoding="UTF-8" standalone="no"?>
<!-- Created with Inkscape (http://www.inkscape.org/) -->

<svg
   width="75.000069mm"
   height="74.999527mm"
   viewBox="0 0 75.000069 74.999527"
   version="1.1"
   id="svg1"
   xml:space="preserve"
   sodipodi:docname="競プロアイコン.svg"
   inkscape:version="1.3 (0e150ed6c4, 2023-07-21)"
   xmlns:inkscape="http://www.inkscape.org/namespaces/inkscape"
   xmlns:sodipodi="http://sodipodi.sourceforge.net/DTD/sodipodi-0.dtd"
   xmlns="http://www.w3.org/2000/svg"
   xmlns:svg="http://www.w3.org/2000/svg"><sodipodi:namedview
     id="namedview1"
     pagecolor="#ffffff"
     bordercolor="#000000"
     borderopacity="0.25"
     inkscape:showpageshadow="2"
     inkscape:pageopacity="0.0"
     inkscape:pagecheckerboard="0"
     inkscape:deskcolor="#d1d1d1"
     inkscape:document-units="mm"
     inkscape:zoom="0.78581746"
     inkscape:cx="-34.359125"
     inkscape:cy="22.269803"
     inkscape:window-width="1920"
     inkscape:window-height="1129"
     inkscape:window-x="-8"
     inkscape:window-y="-8"
     inkscape:window-maximized="1"
     inkscape:current-layer="svg1" /><defs
     id="defs1" /><g
     id="layer1"
     transform="translate(-217.49996,-157.50051)"><ellipse
       style="fill:#ffffff;fill-opacity:1;stroke:none;stroke-width:0.00741496;stroke-linejoin:bevel;stroke-miterlimit:5.1;stroke-dashoffset:2.29838;stroke-opacity:1;paint-order:markers stroke fill"
       id="path131"
       cx="255"
       cy="195"
       rx="25"
       ry="25.000004" /><path
       id="rect2-3-5-5-7"
       style="fill:#98283c;fill-opacity:1;stroke-width:1.36;stroke-linejoin:round;stroke-miterlimit:5.1;stroke-dashoffset:2.29838;paint-order:markers stroke fill"
       d="m 229.99968,171.99953 v 16.00004 h 15.00012 v -16.00004 z m 12.50053,4.29121 v 4.20853 h -4.69997 c 1.3606,-1.61226 2.9417,-3.03144 4.69997,-4.20853 z m -6.52932,6.70862 h 6.52932 v 2.50011 h -7.89667 c 0.40364,-0.86514 0.86112,-1.69906 1.36735,-2.50011 z" /><path
       id="rect15-5-1-1-1"
       style="fill:#98283c;fill-opacity:1;stroke-width:1.36;stroke-linejoin:round;stroke-miterlimit:5.1;stroke-dashoffset:2.29838;paint-order:markers stroke fill"
       d="m 246.0001,168.99904 v 19.00039 h 3.00034 v -5.00021 h 3.99975 v 1.99987 h -1.99987 v 3.00034 h 4.99969 v -19.00039 z m 3.00034,5.00021 h 3.99975 v 2.50011 h -3.99975 z m 0,4.49999 h 3.99975 v 2.5001 h -3.99975 z" /><path
       id="path67-5"
       style="fill:#98283c;stroke-width:1.36;stroke-linejoin:round;stroke-miterlimit:5.1;stroke-dashoffset:2.29838;paint-order:markers stroke fill"
       d="m 266.00054,203.99963 v 9.44645 4.00234 2.55126 h 2.99982 v -2.5001 h 11.41894 v -13.49995 h -2.09961 -3.81321 z m 2.99982,2.99982 h 3.80597 a 21.500004,21.500004 0 0 1 -0.99684,1.40508 21.500004,21.500004 0 0 1 -1.60662,1.79782 21.500004,21.500004 0 0 1 -1.20251,1.07487 z" /><path
       id="rect4-8-2-6-8"
       style="fill:#98283c;fill-opacity:1;stroke-width:1.36;stroke-linejoin:round;stroke-miterlimit:5.1;stroke-dashoffset:2.29838;paint-order:markers stroke fill"
       d="m 258,170.18361 v 3.52847 a 21.500004,21.500004 0 0 1 7.93853,2.78742 h -7.93802 v 11.50007 h 14.14591 c -1.40472,-3.73818 -4.01131,-6.90391 -7.4104,-8.99996 h 4.26434 0.34571 a 21.500004,21.500004 0 0 1 5.98103,8.99996 h 3.67161 A 25.000002,25.000002 0 0 0 258,170.18361 Z m 3.50056,11.13679 c 1.82601,0.87846 3.44632,2.132 4.75526,3.67884 h -4.75526 z" /><g
       id="g11-2-1"
       style="fill:#98283c;fill-opacity:1"
       transform="translate(217.50004,157.49949)"><path
         id="rect21-9-5-9-8"
         style="fill:#98283c;fill-opacity:1;stroke-width:1.36;stroke-linejoin:round;stroke-miterlimit:5.1;stroke-dashoffset:2.29838;paint-order:markers stroke fill"
         d="m 17.500224,42.00002 v 2.49959 h 4.970756 v -2.49959 z m 1.500167,0.99994 h 1.999878 v 0.49971 h -1.999878 z" /><path
         id="rect5-0-5-5-8"
         style="fill:#98283c;fill-opacity:1;stroke-width:1.36;stroke-linejoin:round;stroke-miterlimit:5.1;stroke-dashoffset:2.29838;paint-order:markers stroke fill"
         d="m 21.49998,31.49988 v 0.99994 h -9.999907 v 1.50017 h 21.000269 v -1.50017 h -8.000029 v -0.99994 z" /><path
         id="rect6-7-6-4-2"
         style="fill:#98283c;fill-opacity:1;stroke-width:1.36;stroke-linejoin:round;stroke-miterlimit:5.1;stroke-dashoffset:2.29838;paint-order:markers stroke fill"
         d="m 11.500073,34.4997 v 5.00021 H 32.500342 V 34.4997 Z m 5.000212,1.99988 h 12.999723 v 1.00045 H 16.500285 Z" /><path
         id="rect7-0-9-2-6"
         style="fill:#98283c;fill-opacity:1;stroke-width:1.36;stroke-linejoin:round;stroke-miterlimit:5.1;stroke-dashoffset:2.29838;paint-order:markers stroke fill"
         d="m 11.500073,39.99962 v 1.50017 2.99982 h 5.000212 v -2.99982 h 13.046749 v 0.99994 h -3.063379 v 1.99988 h 6.016687 v -4.49999 z" /></g><path
       id="path30-31-6-2-3-8-5"
       style="fill:#98283c;fill-opacity:1;stroke:none;stroke-width:0.410678;stroke-linejoin:round;stroke-miterlimit:5.1;stroke-dashoffset:2.29838;stroke-opacity:1;paint-order:markers stroke fill"
       d="m 251.00032,199.99921 v 3.00033 h -3.00034 v 1.49965 h 0.971 a 3.0294373,3.5 0 0 0 0.54622,1.99988 h -1.51722 v 1.50017 h 8.00003 v -1.50017 h -1.51412 a 3.0294373,3.5 0 0 0 0.54364,-1.99988 h 0.97048 v -1.49965 h -2.99981 v -3.00033 z m 0,4.49998 h 1.99988 a 1.0000032,2.9999819 0 0 1 -0.25477,1.99988 h -1.49035 a 1.0000032,2.9999819 0 0 1 -0.25476,-1.99988 z" /><path
       id="rect12-1-7-7-3"
       style="fill:#98283c;fill-opacity:1;stroke-width:1.35999;stroke-linejoin:round;stroke-miterlimit:5.1;stroke-dashoffset:2.29838;paint-order:markers stroke fill"
       d="m 264.00004,188.99936 v 0.99994 h -11.99978 v 1.50017 h 11.99978 v 0.49971 h -11.99978 v 5.00021 h 19.99981 v 0.49971 h -19.99981 v 1.50017 h 19.99981 v 0.99994 h -2.99982 v 1.99988 h 6.00015 v -1.99988 -0.99994 h 5.99964 v -1.50017 h -5.99964 v -0.49971 h 5.99964 v -5.00021 h -13.99966 v -0.49971 h 13.99966 v -1.50017 h -13.99966 v -0.99994 z m -9.9999,4.49999 h 9.9999 v 0.49971 h -9.9999 z m 13.00024,0 h 9.9999 v 0.49971 h -9.9999 z m -13.00024,1.50016 h 9.9999 v 0.49972 h -9.9999 z m 13.00024,0 h 9.9999 v 0.49972 h -9.9999 z m -0.50023,4.49999 v 2.49959 h 1.99988 v -2.49959 z" /><path
       id="path30-9-9-3-1"
       style="fill:#98283c;fill-opacity:1;stroke:none;stroke-width:0.410679;stroke-linejoin:round;stroke-miterlimit:5.1;stroke-dashoffset:2.29838;stroke-opacity:1;paint-order:markers stroke fill"
       d="m 234.00043,208.99932 v 4.00028 h 5.98516 a 4.9853258,4.9999967 0 0 1 -4.98522,4.99969 v 2.5001 a 7.5000029,7.4999995 0 0 0 7.4998,-7.49979 v 7.49979 h 2.5001 v -2.00091 c 1.41796,-8.3e-4 2.72915,-0.75252 3.44682,-1.97455 -1.2469,-0.38635 -2.20922,-0.76554 -3.44682,-1.37098 v -2.15335 h 1.99988 v -4.00028 z m 4.70462,1.50586 h 6.29574 v 0.98857 h -5.29735 c -0.34345,-0.31866 -0.6754,-0.64924 -0.99839,-0.98857 z" /><path
       id="rect23-7-9-1-8"
       style="fill:#98283c;fill-opacity:1;stroke-width:1.36;stroke-linejoin:round;stroke-miterlimit:5.1;stroke-dashoffset:2.29838;paint-order:markers stroke fill"
       d="m 241.00041,199.99921 v 3.00033 h -10.00042 v 1.49965 h 7.00009 a 3.9999969,3.5 0 0 0 0.7214,1.99988 h -7.06727 v 1.50017 h 10.34614 4.99969 v -1.50017 h -1.71772 a 4.0000033,3.5 0 0 0 0.71778,-1.99988 h 0.99994 v -1.49965 h -3.99975 v -3.00033 z m -0.50023,4.49998 H 243.5 a 1.5000032,2.9999819 0 0 1 -0.38189,1.99988 h -2.23294 a 1.4999969,2.9999819 0 0 1 -0.38499,-1.99988 z" /><g
       id="g12-5-8"
       style="fill:#98283c;fill-opacity:1"
       transform="translate(217.50004,157.49949)"><path
         id="rect29-7-8-6-1"
         style="fill:#98283c;fill-opacity:1;stroke-width:1.36;stroke-linejoin:round;stroke-miterlimit:5.1;stroke-dashoffset:2.29838;paint-order:markers stroke fill"
         d="m 39.500432,46.5 v 3.99976 h 4.49998 v 1.99988 a 4.500248,6.3000441 0 0 1 -4.49998,6.30039 v 3.61941 a 8.0000038,9.9195852 0 0 0 7.99951,-9.9198 V 50.49976 46.5 Z" /><path
         id="path93-4-7-4"
         style="fill:#98283c;fill-opacity:1;stroke:none;stroke-width:0.410678;stroke-linejoin:round;stroke-miterlimit:5.1;stroke-dashoffset:2.29838;stroke-opacity:1;paint-order:markers stroke fill"
         d="m 45.749765,42.499954 a 1.75,1.7499999 0 0 0 -1.749764,1.750281 1.75,1.7499999 0 0 0 1.749764,1.749764 1.75,1.7499999 0 0 0 1.749764,-1.749764 1.75,1.7499999 0 0 0 -1.749764,-1.750281 z m 0,0.999939 a 0.75,0.74999994 0 0 1 0.749825,0.750342 0.75,0.74999994 0 0 1 -0.749825,0.749825 0.75,0.74999994 0 0 1 -0.749825,-0.749825 0.75,0.74999994 0 0 1 0.749825,-0.750342 z" /></g><path
       id="rect28-6-6-7"
       style="fill:#98283c;fill-opacity:1;stroke-width:1.36;stroke-linejoin:round;stroke-miterlimit:5.1;stroke-dashoffset:2.29838;paint-order:markers stroke fill"
       d="m 248.00009,208.99932 v 4.00028 h 1.99988 v 1.50016 a 5,4.9999967 0 0 1 -4.9997,4.9997 v 1.99987 a 7.0000181,6.9999967 0 0 0 6.99957,-6.99957 v 6.99957 h 2.0004 0.99994 v 5.2e-4 l 0.99994,-5.2e-4 v -4.02197 c -0.33311,0.0148 -0.6665,0.0222 -0.99994,0.0222 -0.33344,0 -0.66683,-0.007 -0.99994,-0.0222 v -2.9776 -1.50016 h 1.99988 v -4.00028 z m 1.99988,1.51206 h 4.00027 v 0.98805 h -4.00027 z" /><path
       id="rect93-0-2-7"
       style="fill:#000000;fill-opacity:1;stroke:none;stroke-width:0.410678;stroke-linejoin:round;stroke-miterlimit:5.1;stroke-dashoffset:2.29838;stroke-opacity:1;paint-order:markers stroke fill"
       d="m 217.49997,157.50051 v 74.99953 h 75.00007 V 157.50051 Z M 255.00001,170 a 25.000002,25.000002 0 0 1 25.00002,25.00002 25.000002,25.000002 0 0 1 -25.00002,25.00001 A 25.000002,25.000002 0 0 1 229.99998,195.00002 25.000002,25.000002 0 0 1 255.00001,170 Z" /></g></svg>
